<svg
  id="Capa_1"
  enable-background="new 0 0 512 512"
  height="40"
  viewBox="0 0 512 512"
  width="40"
  xmlns="http://www.w3.org/2000/svg"
>
  <g>
    <path
      d="m334.718 305.579 95.638-41.092c10.411-4.027 22.186.426 27.326 10.336 6.205 11.962.231 26.636-12.565 30.862l-50.552 17.43-77.684 24.507v-35.107z"
      fill="#f6a96c"
    />
    <path
      d="m460.151 284.882c0 9.084-5.702 17.724-15.033 20.807l-50.553 17.425-77.681 24.509v-19.199l70.463-22.22 50.553-17.435c9.104-3.011 14.744-11.29 15.012-20.126 1.897 1.712 3.526 3.784 4.764 6.176 1.681 3.238 2.475 6.682 2.475 10.063z"
      fill="#ea9b58"
    />
    <g>
      <path
        d="m415.204 107.172c-15.421-11.768-34.511-18.196-53.905-18.196-28.229 0-57.723 16.298-69.666 59.232h-.001c-11.943-42.933-41.437-59.232-69.666-59.232-19.394 0-38.484 6.427-53.905 18.196-23.355 17.823-37.327 43.919-37.785 73.411-.993 63.934 43.069 122.423 95.766 154.267 15.228 9.202 42.844 20.981 56.887 26.765 5.534 2.279 11.739 2.302 17.289.063 19.662-7.931 38.655-15.74 57.005-26.828 52.697-31.845 96.759-90.333 95.766-154.267-.458-29.491-14.429-55.587-37.785-73.411z"
        fill="#61ee61"
      />
    </g>
    <g>
      <path
        d="m357.22 334.851c-18.343 11.084-37.335 18.9-56.998 26.828-5.558 2.237-11.754 2.217-17.291-.062-.711-.299-1.464-.608-2.248-.928 18.786-7.599 36.953-15.219 54.544-25.839 52.698-31.85 96.756-90.332 95.766-154.269-.454-29.489-14.424-55.585-37.789-73.412-12.342-9.414-27.035-15.415-42.356-17.425 3.485-.516 6.98-.763 10.455-.763 19.395 0 38.479 6.424 53.904 18.188 23.354 17.827 37.325 43.924 37.778 73.412 1.001 63.938-43.067 122.42-95.765 154.27z"
        fill="#44e944"
      />
    </g>
    <g>
      <path
        d="m506.992 307.669c-8.293-12.841-24.656-17.801-38.683-11.727l-143.428 47.369-.262-.02c8.652-2.939 15.349-10.558 16.639-20.229 1.812-13.588-7.735-26.072-21.323-27.884-26.233-5.162-52.466-10.323-78.699-15.485-10.493-2.065-46.634-9.887-53.83-9.426-14.669.94-27.796 11.717-39.114 19.748-25.433 18.048-50.976 12.657-77.026 3.839v95.957l62.76-3.664c13.288-1.135 26.663.666 39.178 5.276 0 0 60.013 22.104 60.047 22.117 41.065 15.125 77.203-2.538 115.334-15.386 48.313-16.278 97.793-28.843 145.986-45.496 16.753-8.271 22.557-29.294 12.421-44.989z"
        fill="#fed2a4"
      />
      <path
        d="m494.568 352.663c-48.192 16.652-97.673 29.21-145.979 45.491-38.139 12.847-74.278 30.509-115.336 15.384-.041-.01-60.05-22.116-60.05-22.116-12.517-4.609-25.89-6.403-39.181-5.269l-62.761 3.66v-20.529l62.761-3.671c13.291-1.134 28.592-1.258 41.109 3.351 0 0 60.008 22.106 60.05 22.116 41.057 15.126 75.268-.608 113.408-13.455 48.306-16.281 97.787-28.849 145.979-45.501 7.723-3.815 13.115-10.331 15.693-17.786 5.083 14.518-1.227 31.169-15.693 38.325z"
        fill="#ffbd86"
      />
      <path
        d="m58.709 423.02h-42.727c-8.827 0-15.982-7.156-15.982-15.982v-124.862c0-8.827 7.155-15.982 15.982-15.982h42.726c8.827 0 15.982 7.155 15.982 15.982v124.862c.001 8.826-7.155 15.982-15.981 15.982z"
        fill="#57be92"
      />
      <path
        d="m74.687 282.179v124.863c0 8.826-7.156 15.982-15.982 15.982h-20.621c8.826 0 15.982-7.156 15.982-15.982v-124.863c0-8.826-7.156-15.982-15.982-15.982h20.621c8.826 0 15.982 7.156 15.982 15.982z"
        fill="#09a76d"
      />
    </g>
    <path
      d="m341.462 319.368c.031 1.214-.042 2.448-.207 3.693-1.286 9.668-7.987 17.292-16.638 20.227l.259.021 1.774-.591c-2.77 1.151-5.747 1.753-8.755 1.628l-2.023-.176-98.927-22.302c-2.697-1.442-4.243-4.201-4.243-7.074 0-1.255.301-2.541.934-3.734 2.075-3.911 6.908-5.384 10.819-3.309 0 0 88.346 18.972 92.921 19.823 12.427 2.323 20.435-5.706 24.086-8.206z"
      fill="#ffbd86"
    />
  </g>
</svg>
